HIERARCHY
ROOT Hips
{
	OFFSET 0.00000 0.00000 0.00000
	CHANNELS 6 Xposition Yposition Zposition Zrotation Yrotation Xrotation 
	JOINT LHipJoint
	{
		OFFSET 0 0 0
		CHANNELS 3 Zrotation Yrotation Xrotation
		JOINT LeftUpLeg
		{
			OFFSET 1.81424 -1.42316 1.18090
			CHANNELS 3 Zrotation Yrotation Xrotation
			JOINT LeftLeg
			{
				OFFSET 2.15837 -5.93008 0.00000
				CHANNELS 3 Zrotation Yrotation Xrotation
				JOINT LeftFoot
				{
					OFFSET 2.51759 -6.91701 0.00000
					CHANNELS 3 Zrotation Yrotation Xrotation
					JOINT LeftToeBase
					{
						OFFSET 0.18318 -0.50327 1.95113
						CHANNELS 3 Zrotation Yrotation Xrotation
						End Site
						{
							OFFSET 0.00000 -0.00000 1.01524
						}
					}
				}
			}
		}
	}
	JOINT RHipJoint
	{
		OFFSET 0 0 0
		CHANNELS 3 Zrotation Yrotation Xrotation
		JOINT RightUpLeg
		{
			OFFSET -1.43917 -1.42316 1.18090
			CHANNELS 3 Zrotation Yrotation Xrotation
			JOINT RightLeg
			{
				OFFSET -2.25237 -6.18833 0.00000
				CHANNELS 3 Zrotation Yrotation Xrotation
				JOINT RightFoot
				{
					OFFSET -2.46496 -6.77243 0.00000
					CHANNELS 3 Zrotation Yrotation Xrotation
					JOINT RightToeBase
					{
						OFFSET -0.26285 -0.72219 1.76148
						CHANNELS 3 Zrotation Yrotation Xrotation
						End Site
						{
							OFFSET -0.00000 -0.00000 0.95109
						}
					}
				}
			}
		}
	}
	JOINT LowerBack
	{
		OFFSET 0 0 0
		CHANNELS 3 Zrotation Yrotation Xrotation
		JOINT Spine
		{
			OFFSET -0.08725 1.93754 -0.28890
			CHANNELS 3 Zrotation Yrotation Xrotation
			JOINT Spine1
			{
				OFFSET 0.01195 1.94849 0.05967
				CHANNELS 3 Zrotation Yrotation Xrotation
				JOINT Neck
				{
					OFFSET 0 0 0
					CHANNELS 3 Zrotation Yrotation Xrotation
					JOINT Neck1
					{
						OFFSET 0.02762 1.60124 0.34160
						CHANNELS 3 Zrotation Yrotation Xrotation
						JOINT Head
						{
							OFFSET -0.04785 1.66713 -0.24070
							CHANNELS 3 Zrotation Yrotation Xrotation
							End Site
							{
								OFFSET -0.02188 1.68591 -0.11959
							}
						}
					}
				}
				JOINT LeftShoulder
				{
					OFFSET 0 0 0
					CHANNELS 3 Zrotation Yrotation Xrotation
					JOINT LeftArm
					{
						OFFSET 2.59610 1.78696 -0.28854
						CHANNELS 3 Zrotation Yrotation Xrotation
						JOINT LeftForeArm
						{
							OFFSET 5.17853 -0.00000 0.00000
							CHANNELS 3 Zrotation Yrotation Xrotation
							JOINT LeftHand
							{
								OFFSET 3.40399 -0.00000 -0.00000
								CHANNELS 3 Zrotation Yrotation Xrotation
								JOINT LeftFingerBase
								{
									OFFSET 0 0 0
									CHANNELS 3 Zrotation Yrotation Xrotation
									JOINT LeftHandIndex1
									{
										OFFSET 0.70896 -0.00000 -0.00000
										CHANNELS 3 Zrotation Yrotation Xrotation
										End Site
										{
											OFFSET 0.57159 -0.00000 -0.00000
										}
									}
								}
								JOINT LThumb
								{
									OFFSET 0 0 0
									CHANNELS 3 Zrotation Yrotation Xrotation
									End Site
									{
										OFFSET 0.58031 -0.00000 0.58031
									}
								}
							}
						}
					}
				}
				JOINT RightShoulder
				{
					OFFSET 0 0 0
					CHANNELS 3 Zrotation Yrotation Xrotation
					JOINT RightArm
					{
						OFFSET -2.87749 1.55486 -0.73085
						CHANNELS 3 Zrotation Yrotation Xrotation
						JOINT RightForeArm
						{
							OFFSET -5.42351 -0.00000 -0.00000
							CHANNELS 3 Zrotation Yrotation Xrotation
							JOINT RightHand
							{
								OFFSET -3.42066 -0.00000 -0.00000
								CHANNELS 3 Zrotation Yrotation Xrotation
								JOINT RightFingerBase
								{
									OFFSET 0 0 0
									CHANNELS 3 Zrotation Yrotation Xrotation
									JOINT RightHandIndex1
									{
										OFFSET -0.74361 -0.00000 -0.00000
										CHANNELS 3 Zrotation Yrotation Xrotation
										End Site
										{
											OFFSET -0.59952 -0.00000 -0.00000
										}
									}
								}
								JOINT RThumb
								{
									OFFSET 0 0 0
									CHANNELS 3 Zrotation Yrotation Xrotation
									End Site
									{
										OFFSET -0.60867 -0.00000 0.60867
									}
								}
							}
						}
					}
				}
			}
		}
	}
}
MOTION
Frames: 6
Frame Time: .0083333
4.9256 6.3959 -0.9394 -301.4920 63.6785 27.0379 0.0000 0.0000 0.0000 16.8397 25.0416 -59.4551 30.3107 17.2314 121.5554 -2.7255 -33.6498 -8.0080 0.4655 -4.3761 -12.1371 0.0000 0.0000 0.0000 -10.9839 -17.3305 -95.1162 -36.7582 -11.0766 147.4615 -1.3507 17.1519 -22.4723 -0.2038 -2.9071 8.0202 -4.8317 -4.0948 36.5188 1.3246 -5.0333 14.5522 5.5066 -2.0615 -1.6425 4.5490 2.5743 -5.7453 -24.1062 9.0700 21.2691 -8.3379 3.0649 8.9292 0.0000 0.0000 0.0000 -46.4507 -17.8894 29.2224 11.4933 -19.0404 -1.9338 -0.0000 0.0000 -15.4968 19.7608 -20.5859 -7.1993 -7.1250 0.0000 -0.0000 -5.5899 8.3075 4.7468 0.0000 0.0000 0.0000 64.7169 3.3482 -123.8485 -4.6456 7.9855 -0.3244 0.0000 0.0000 138.8690 -31.7975 39.0782 -21.3463 7.1250 -0.0000 -0.0000 1.7012 13.6981 2.0565
5.0525 6.4056 -0.9632 -302.0330 63.5519 27.1636 0.0000 0.0000 0.0000 17.1133 26.2745 -59.9145 30.6149 17.0492 122.5875 -2.5067 -33.5004 -9.3871 0.5931 -4.9303 -13.7099 0.0000 0.0000 0.0000 -11.3462 -18.6558 -95.8914 -36.8605 -10.9175 147.9979 -1.2866 17.7524 -22.2574 -0.1171 -2.2060 6.0754 -3.8018 -4.6005 35.4158 0.8014 -5.3527 14.7557 4.4722 -2.1740 -1.1534 5.0989 2.6154 -5.7708 -24.1028 9.0411 21.3212 -8.4502 3.0824 8.9631 0.0000 -0.0000 0.0000 -44.9877 -18.2330 29.4992 11.7471 -19.4243 -2.0174 -0.0000 0.0000 -15.9330 19.6333 -20.4879 -7.1172 -7.1250 0.0000 -0.0000 -5.6646 8.4274 4.7974 0.0000 -0.0000 0.0000 64.9385 3.5310 -127.0603 -4.7983 8.2438 -0.3460 0.0000 0.0000 142.1040 -31.7107 39.1431 -21.3076 7.1250 -0.0000 -0.0000 1.7622 13.7363 2.1311
5.1656 6.4158 -0.9880 -302.7090 63.1167 26.5969 0.0000 0.0000 0.0000 17.5490 27.6940 -59.5136 30.8656 16.8934 123.4463 -2.3269 -33.3379 -10.4248 0.6712 -5.2390 -14.5915 0.0000 0.0000 0.0000 -12.0447 -19.2246 -95.9931 -36.9516 -10.7730 148.4820 -1.2037 18.4495 -21.9728 -0.0749 -1.7656 4.8584 -4.3878 -4.1500 36.2975 1.5209 -4.9820 14.3420 5.4673 -2.0331 -1.8303 4.9557 2.5655 -6.0366 -24.7416 9.3206 21.8430 -8.6860 3.1353 9.2895 0.0000 -0.0000 0.0000 -45.6353 -18.6217 29.4967 11.7687 -19.4569 -2.0246 -0.0000 0.0000 -15.1666 19.7411 -20.6836 -7.2239 -7.1250 0.0000 -0.0000 -5.6095 8.2089 4.7746 0.0000 -0.0000 0.0000 63.3334 3.1905 -130.4054 -4.9122 8.4363 -0.3625 0.0000 0.0000 145.2270 -30.9577 39.0707 -20.7105 7.1250 -0.0000 -0.0000 2.1244 13.4254 2.5611
5.2758 6.4289 -1.0129 -303.1700 62.7647 26.2337 0.0000 0.0000 0.0000 17.9060 28.9157 -59.1037 31.1110 16.7358 124.2944 -2.1818 -33.0548 -11.0407 0.6658 -5.2185 -14.5327 0.0000 0.0000 0.0000 -12.8207 -20.3893 -95.9676 -37.0448 -10.6221 148.9842 -1.0697 19.6317 -21.5801 -0.0796 -1.8197 5.0077 -3.3615 -4.7073 35.4895 0.6178 -5.3386 14.9770 4.0430 -2.1354 -0.9948 5.4460 2.7057 -6.2322 -24.4480 9.2421 21.4728 -8.6445 3.1425 9.1817 -0.0000 -0.0000 0.0000 -43.5684 -19.0314 29.6265 12.1263 -19.9938 -2.1453 -0.0000 0.0000 -15.8669 20.0040 -20.6606 -7.3195 -7.1250 0.0000 -0.0000 -5.4398 8.1951 4.6303 -0.0000 -0.0000 0.0000 64.0444 4.2469 -133.6668 -5.2503 9.0062 -0.4138 0.0000 0.0000 148.3260 -30.7367 38.5900 -20.3494 7.1250 -0.0000 -0.0000 2.1145 12.8690 2.5338
5.3816 6.4457 -1.0364 -303.7100 62.4078 25.6372 0.0000 0.0000 0.0000 18.4322 30.1197 -58.4245 31.3291 16.5912 125.0551 -2.0889 -32.7426 -11.2661 0.6583 -5.1895 -14.4500 0.0000 0.0000 0.0000 -13.5153 -21.0400 -95.6385 -37.1041 -10.5246 149.3071 -1.0112 20.1998 -21.4504 -0.0433 -1.3435 3.6944 -4.5715 -4.4170 36.8446 1.5538 -5.3730 14.3786 5.7388 -2.2294 -1.9078 4.4751 2.8711 -6.1508 -25.0340 9.8188 21.4843 -8.6322 3.3211 9.2889 0.0000 -0.0000 0.0000 -44.9133 -18.6177 28.2401 12.0018 -19.8074 -2.1029 -0.0000 0.0000 -14.9147 19.6823 -21.3143 -7.4080 -7.1250 0.0000 -0.0000 -5.6930 7.5633 4.9191 0.0000 -0.0000 0.0000 61.7558 4.3506 -135.2697 -5.4127 9.2791 -0.4396 0.0000 0.0000 151.0230 -30.5379 37.8736 -19.9091 7.1250 -0.0000 -0.0000 2.0383 12.0785 2.4210
5.5006 6.4468 -1.0616 -303.9110 62.4290 25.7475 0.0000 0.0000 0.0000 18.8797 31.0786 -58.7090 31.6158 16.3947 126.0650 -2.1255 -32.5734 -10.7887 0.6308 -5.0819 -14.1422 0.0000 0.0000 0.0000 -14.1099 -23.0432 -95.9132 -37.1931 -10.3757 149.7977 -0.9242 21.1647 -21.3390 -0.0135 -0.7513 2.0647 -4.8210 -4.5482 36.9699 1.9310 -5.6167 14.1645 6.3574 -2.3762 -2.0996 4.0255 2.9572 -6.1589 -25.3069 10.0914 21.4700 -8.6254 3.4026 9.3431 0.0000 0.0000 0.0000 -45.1793 -18.6519 27.3709 12.0327 -19.8537 -2.1134 -0.0000 0.0000 -14.5392 19.3031 -21.7670 -7.4005 -7.1250 0.0000 -0.0000 -5.9670 7.1503 5.2069 0.0000 0.0000 0.0000 60.5122 4.6292 -135.9283 -5.6258 9.6366 -0.4746 0.0000 0.0000 152.2010 -30.0690 37.5536 -19.4367 7.1250 -0.0000 -0.0000 2.2031 11.6100 2.6031
